<mxfile host="65bd71144e">
    <diagram id="6Sit-7I4N6uwnD8bCyvo" name="Page-1">
        <mxGraphModel dx="426" dy="432" grid="1" gridSize="10" guides="1" tooltips="1" connect="1" arrows="1" fold="1" page="1" pageScale="1" pageWidth="827" pageHeight="1169" math="0" shadow="0">
            <root>
                <mxCell id="0"/>
                <mxCell id="1" parent="0"/>
                <mxCell id="mWjWmFwrWSOs6kgCQoUs-3" value="" style="edgeStyle=orthogonalEdgeStyle;rounded=0;orthogonalLoop=1;jettySize=auto;html=1;" parent="1" source="mWjWmFwrWSOs6kgCQoUs-1" target="mWjWmFwrWSOs6kgCQoUs-2" edge="1">
                    <mxGeometry relative="1" as="geometry"/>
                </mxCell>
                <mxCell id="mWjWmFwrWSOs6kgCQoUs-1" value="Create an agent" style="rhombus;whiteSpace=wrap;html=1;" parent="1" vertex="1">
                    <mxGeometry x="40" y="190" width="140" height="100" as="geometry"/>
                </mxCell>
                <mxCell id="mWjWmFwrWSOs6kgCQoUs-9" style="edgeStyle=orthogonalEdgeStyle;rounded=0;orthogonalLoop=1;jettySize=auto;html=1;" parent="1" source="mWjWmFwrWSOs6kgCQoUs-2" target="mWjWmFwrWSOs6kgCQoUs-7" edge="1">
                    <mxGeometry relative="1" as="geometry"/>
                </mxCell>
                <mxCell id="mWjWmFwrWSOs6kgCQoUs-2" value="Login as ADMIN&lt;br&gt;Email/Password" style="whiteSpace=wrap;html=1;" parent="1" vertex="1">
                    <mxGeometry x="220" y="210" width="120" height="60" as="geometry"/>
                </mxCell>
                <mxCell id="mWjWmFwrWSOs6kgCQoUs-11" value="" style="edgeStyle=orthogonalEdgeStyle;rounded=0;orthogonalLoop=1;jettySize=auto;html=1;" parent="1" source="mWjWmFwrWSOs6kgCQoUs-7" target="mWjWmFwrWSOs6kgCQoUs-10" edge="1">
                    <mxGeometry relative="1" as="geometry"/>
                </mxCell>
                <mxCell id="mWjWmFwrWSOs6kgCQoUs-7" value="Add email/name" style="rounded=0;whiteSpace=wrap;html=1;" parent="1" vertex="1">
                    <mxGeometry x="415" y="210" width="120" height="60" as="geometry"/>
                </mxCell>
                <mxCell id="mWjWmFwrWSOs6kgCQoUs-10" value="generate password -&amp;gt; sends password/email to given email" style="shape=step;perimeter=stepPerimeter;whiteSpace=wrap;html=1;fixedSize=1;rounded=0;" parent="1" vertex="1">
                    <mxGeometry x="600" y="200" width="230" height="80" as="geometry"/>
                </mxCell>
                <mxCell id="mWjWmFwrWSOs6kgCQoUs-15" value="" style="edgeStyle=orthogonalEdgeStyle;rounded=0;orthogonalLoop=1;jettySize=auto;html=1;" parent="1" source="mWjWmFwrWSOs6kgCQoUs-13" target="mWjWmFwrWSOs6kgCQoUs-14" edge="1">
                    <mxGeometry relative="1" as="geometry"/>
                </mxCell>
                <mxCell id="mWjWmFwrWSOs6kgCQoUs-13" value="Start a Refund&lt;br&gt;case" style="rhombus;whiteSpace=wrap;html=1;" parent="1" vertex="1">
                    <mxGeometry x="40" y="450" width="140" height="80" as="geometry"/>
                </mxCell>
                <mxCell id="mWjWmFwrWSOs6kgCQoUs-19" value="" style="edgeStyle=orthogonalEdgeStyle;rounded=0;orthogonalLoop=1;jettySize=auto;html=1;" parent="1" source="mWjWmFwrWSOs6kgCQoUs-14" target="mWjWmFwrWSOs6kgCQoUs-18" edge="1">
                    <mxGeometry relative="1" as="geometry"/>
                </mxCell>
                <mxCell id="mWjWmFwrWSOs6kgCQoUs-24" value="Account" style="edgeLabel;html=1;align=center;verticalAlign=middle;resizable=0;points=[];" parent="mWjWmFwrWSOs6kgCQoUs-19" vertex="1" connectable="0">
                    <mxGeometry x="0.1654" relative="1" as="geometry">
                        <mxPoint as="offset"/>
                    </mxGeometry>
                </mxCell>
                <mxCell id="mWjWmFwrWSOs6kgCQoUs-23" value="" style="edgeStyle=orthogonalEdgeStyle;rounded=0;orthogonalLoop=1;jettySize=auto;html=1;" parent="1" source="mWjWmFwrWSOs6kgCQoUs-14" target="mWjWmFwrWSOs6kgCQoUs-22" edge="1">
                    <mxGeometry relative="1" as="geometry">
                        <Array as="points">
                            <mxPoint x="317" y="490"/>
                            <mxPoint x="317" y="550"/>
                        </Array>
                    </mxGeometry>
                </mxCell>
                <mxCell id="mWjWmFwrWSOs6kgCQoUs-25" value="No Account" style="edgeLabel;html=1;align=center;verticalAlign=middle;resizable=0;points=[];" parent="mWjWmFwrWSOs6kgCQoUs-23" vertex="1" connectable="0">
                    <mxGeometry x="0.0465" y="-1" relative="1" as="geometry">
                        <mxPoint as="offset"/>
                    </mxGeometry>
                </mxCell>
                <mxCell id="mWjWmFwrWSOs6kgCQoUs-14" value="login as CLIENT" style="whiteSpace=wrap;html=1;" parent="1" vertex="1">
                    <mxGeometry x="210" y="460" width="70" height="60" as="geometry"/>
                </mxCell>
                <mxCell id="mWjWmFwrWSOs6kgCQoUs-27" value="" style="edgeStyle=orthogonalEdgeStyle;rounded=0;orthogonalLoop=1;jettySize=auto;html=1;" parent="1" source="mWjWmFwrWSOs6kgCQoUs-18" target="mWjWmFwrWSOs6kgCQoUs-26" edge="1">
                    <mxGeometry relative="1" as="geometry"/>
                </mxCell>
                <mxCell id="mWjWmFwrWSOs6kgCQoUs-18" value="Email/Password" style="whiteSpace=wrap;html=1;" parent="1" vertex="1">
                    <mxGeometry x="354" y="400" width="120" height="60" as="geometry"/>
                </mxCell>
                <mxCell id="mWjWmFwrWSOs6kgCQoUs-31" value="" style="edgeStyle=orthogonalEdgeStyle;rounded=0;orthogonalLoop=1;jettySize=auto;html=1;" parent="1" source="mWjWmFwrWSOs6kgCQoUs-22" target="mWjWmFwrWSOs6kgCQoUs-30" edge="1">
                    <mxGeometry relative="1" as="geometry"/>
                </mxCell>
                <mxCell id="mWjWmFwrWSOs6kgCQoUs-22" value="Use Order number" style="whiteSpace=wrap;html=1;fillColor=#ffe6cc;strokeColor=#d79b00;fontColor=#000033;" parent="1" vertex="1">
                    <mxGeometry x="354" y="520" width="120" height="60" as="geometry"/>
                </mxCell>
                <mxCell id="mWjWmFwrWSOs6kgCQoUs-35" value="" style="edgeStyle=orthogonalEdgeStyle;rounded=0;orthogonalLoop=1;jettySize=auto;html=1;" parent="1" source="mWjWmFwrWSOs6kgCQoUs-26" target="mWjWmFwrWSOs6kgCQoUs-34" edge="1">
                    <mxGeometry relative="1" as="geometry">
                        <Array as="points">
                            <mxPoint x="797" y="430"/>
                            <mxPoint x="797" y="470"/>
                        </Array>
                    </mxGeometry>
                </mxCell>
                <mxCell id="mWjWmFwrWSOs6kgCQoUs-26" value="Return &lt;br&gt;all client orders /&lt;br&gt;previous refunds request&lt;br&gt;" style="shape=step;perimeter=stepPerimeter;whiteSpace=wrap;html=1;fixedSize=1;" parent="1" vertex="1">
                    <mxGeometry x="554" y="390" width="186" height="80" as="geometry"/>
                </mxCell>
                <mxCell id="mWjWmFwrWSOs6kgCQoUs-28" value="Server" style="text;html=1;align=center;verticalAlign=middle;resizable=0;points=[];autosize=1;strokeColor=none;fillColor=none;" parent="1" vertex="1">
                    <mxGeometry x="660" y="175" width="60" height="30" as="geometry"/>
                </mxCell>
                <mxCell id="mWjWmFwrWSOs6kgCQoUs-29" value="Server" style="text;html=1;align=center;verticalAlign=middle;resizable=0;points=[];autosize=1;strokeColor=none;fillColor=none;" parent="1" vertex="1">
                    <mxGeometry x="600" y="360" width="60" height="30" as="geometry"/>
                </mxCell>
                <mxCell id="mWjWmFwrWSOs6kgCQoUs-37" value="" style="edgeStyle=orthogonalEdgeStyle;rounded=0;orthogonalLoop=1;jettySize=auto;html=1;" parent="1" source="mWjWmFwrWSOs6kgCQoUs-30" edge="1">
                    <mxGeometry relative="1" as="geometry">
                        <mxPoint x="850" y="470" as="targetPoint"/>
                        <Array as="points">
                            <mxPoint x="800" y="550"/>
                            <mxPoint x="800" y="470"/>
                            <mxPoint x="850" y="470"/>
                        </Array>
                    </mxGeometry>
                </mxCell>
                <mxCell id="mWjWmFwrWSOs6kgCQoUs-30" value="Return &lt;br&gt;only the given order /&lt;br&gt;that specific order refund &lt;br&gt;requests" style="shape=step;perimeter=stepPerimeter;whiteSpace=wrap;html=1;fixedSize=1;fillColor=#ffe6cc;strokeColor=#d79b00;fontColor=#000033;" parent="1" vertex="1">
                    <mxGeometry x="554" y="510" width="186" height="80" as="geometry"/>
                </mxCell>
                <mxCell id="mWjWmFwrWSOs6kgCQoUs-32" value="Server" style="text;html=1;align=center;verticalAlign=middle;resizable=0;points=[];autosize=1;strokeColor=none;fillColor=none;" parent="1" vertex="1">
                    <mxGeometry x="600" y="480" width="60" height="30" as="geometry"/>
                </mxCell>
                <mxCell id="mWjWmFwrWSOs6kgCQoUs-42" value="" style="edgeStyle=orthogonalEdgeStyle;rounded=0;orthogonalLoop=1;jettySize=auto;html=1;" parent="1" source="mWjWmFwrWSOs6kgCQoUs-34" target="mWjWmFwrWSOs6kgCQoUs-41" edge="1">
                    <mxGeometry relative="1" as="geometry"/>
                </mxCell>
                <mxCell id="mWjWmFwrWSOs6kgCQoUs-44" value="" style="edgeStyle=orthogonalEdgeStyle;rounded=0;orthogonalLoop=1;jettySize=auto;html=1;" parent="1" source="mWjWmFwrWSOs6kgCQoUs-34" target="mWjWmFwrWSOs6kgCQoUs-43" edge="1">
                    <mxGeometry relative="1" as="geometry"/>
                </mxCell>
                <mxCell id="mWjWmFwrWSOs6kgCQoUs-34" value="Choose products to refund&lt;br&gt;" style="whiteSpace=wrap;html=1;" parent="1" vertex="1">
                    <mxGeometry x="853" y="420" width="157" height="50" as="geometry"/>
                </mxCell>
                <mxCell id="mWjWmFwrWSOs6kgCQoUs-41" value="Refund can only be created &lt;br&gt;for single order, single/multi &lt;br&gt;products.&lt;br&gt;Multiple refunds for the same&amp;nbsp;&lt;br&gt;order but for the same products" style="ellipse;shape=cloud;whiteSpace=wrap;html=1;" parent="1" vertex="1">
                    <mxGeometry x="814.75" y="250" width="233.5" height="150" as="geometry"/>
                </mxCell>
                <mxCell id="mWjWmFwrWSOs6kgCQoUs-43" value="Refund created =&amp;gt; assigned to a&amp;nbsp;&lt;br&gt;free agent directly or saved as&amp;nbsp;&lt;br&gt;pending until an agent is free" style="shape=step;perimeter=stepPerimeter;whiteSpace=wrap;html=1;fixedSize=1;" parent="1" vertex="1">
                    <mxGeometry x="1080" y="390" width="210" height="70" as="geometry"/>
                </mxCell>
                <mxCell id="mWjWmFwrWSOs6kgCQoUs-68" value="" style="edgeStyle=orthogonalEdgeStyle;rounded=0;orthogonalLoop=1;jettySize=auto;html=1;" parent="1" source="mWjWmFwrWSOs6kgCQoUs-47" target="mWjWmFwrWSOs6kgCQoUs-67" edge="1">
                    <mxGeometry relative="1" as="geometry"/>
                </mxCell>
                <mxCell id="mWjWmFwrWSOs6kgCQoUs-47" value="Take a decision&lt;br&gt;about refund" style="rhombus;whiteSpace=wrap;html=1;" parent="1" vertex="1">
                    <mxGeometry x="30" y="740" width="140" height="80" as="geometry"/>
                </mxCell>
                <mxCell id="mWjWmFwrWSOs6kgCQoUs-48" value="Activate account&lt;br&gt;enter a new password" style="whiteSpace=wrap;html=1;" parent="1" vertex="1">
                    <mxGeometry x="334" y="850" width="140" height="60" as="geometry"/>
                </mxCell>
                <mxCell id="mWjWmFwrWSOs6kgCQoUs-53" value="" style="edgeStyle=orthogonalEdgeStyle;rounded=0;orthogonalLoop=1;jettySize=auto;html=1;" parent="1" source="mWjWmFwrWSOs6kgCQoUs-50" target="mWjWmFwrWSOs6kgCQoUs-52" edge="1">
                    <mxGeometry relative="1" as="geometry"/>
                </mxCell>
                <mxCell id="mWjWmFwrWSOs6kgCQoUs-50" value="Return &lt;br&gt;refund case/no assigned &lt;br&gt;case yet&amp;nbsp;" style="shape=step;perimeter=stepPerimeter;whiteSpace=wrap;html=1;fixedSize=1;" parent="1" vertex="1">
                    <mxGeometry x="480" y="730" width="180" height="80" as="geometry"/>
                </mxCell>
                <mxCell id="mWjWmFwrWSOs6kgCQoUs-78" value="" style="edgeStyle=orthogonalEdgeStyle;rounded=0;orthogonalLoop=1;jettySize=auto;html=1;" parent="1" source="mWjWmFwrWSOs6kgCQoUs-52" target="mWjWmFwrWSOs6kgCQoUs-77" edge="1">
                    <mxGeometry relative="1" as="geometry"/>
                </mxCell>
                <mxCell id="mWjWmFwrWSOs6kgCQoUs-52" value="Agent take decision&lt;br&gt;accept/decline" style="whiteSpace=wrap;html=1;" parent="1" vertex="1">
                    <mxGeometry x="720" y="740" width="180" height="60" as="geometry"/>
                </mxCell>
                <mxCell id="mWjWmFwrWSOs6kgCQoUs-54" style="edgeStyle=orthogonalEdgeStyle;rounded=0;orthogonalLoop=1;jettySize=auto;html=1;exitX=0.5;exitY=1;exitDx=0;exitDy=0;" parent="1" source="mWjWmFwrWSOs6kgCQoUs-34" target="mWjWmFwrWSOs6kgCQoUs-34" edge="1">
                    <mxGeometry relative="1" as="geometry"/>
                </mxCell>
                <mxCell id="mWjWmFwrWSOs6kgCQoUs-62" value="" style="edgeStyle=orthogonalEdgeStyle;rounded=0;orthogonalLoop=1;jettySize=auto;html=1;" parent="1" source="mWjWmFwrWSOs6kgCQoUs-55" target="mWjWmFwrWSOs6kgCQoUs-61" edge="1">
                    <mxGeometry relative="1" as="geometry"/>
                </mxCell>
                <mxCell id="mWjWmFwrWSOs6kgCQoUs-55" value="Cancel a requested refund" style="whiteSpace=wrap;html=1;" parent="1" vertex="1">
                    <mxGeometry x="853" y="480" width="157" height="50" as="geometry"/>
                </mxCell>
                <mxCell id="mWjWmFwrWSOs6kgCQoUs-61" value="Delete the requested refund" style="shape=step;perimeter=stepPerimeter;whiteSpace=wrap;html=1;fixedSize=1;" parent="1" vertex="1">
                    <mxGeometry x="1080" y="480" width="210" height="60" as="geometry"/>
                </mxCell>
                <mxCell id="mWjWmFwrWSOs6kgCQoUs-63" value="Server" style="text;html=1;align=center;verticalAlign=middle;resizable=0;points=[];autosize=1;strokeColor=none;fillColor=none;" parent="1" vertex="1">
                    <mxGeometry x="1150" y="360" width="60" height="30" as="geometry"/>
                </mxCell>
                <mxCell id="mWjWmFwrWSOs6kgCQoUs-64" value="Server" style="text;html=1;align=center;verticalAlign=middle;resizable=0;points=[];autosize=1;strokeColor=none;fillColor=none;" parent="1" vertex="1">
                    <mxGeometry x="1140" y="535" width="60" height="30" as="geometry"/>
                </mxCell>
                <mxCell id="mWjWmFwrWSOs6kgCQoUs-66" value="Server" style="text;html=1;align=center;verticalAlign=middle;resizable=0;points=[];autosize=1;strokeColor=none;fillColor=none;" parent="1" vertex="1">
                    <mxGeometry x="535" y="710" width="60" height="30" as="geometry"/>
                </mxCell>
                <mxCell id="mWjWmFwrWSOs6kgCQoUs-67" value="Login as AGENT&lt;br&gt;Email/Password" style="whiteSpace=wrap;html=1;" parent="1" vertex="1">
                    <mxGeometry x="200" y="750" width="120" height="60" as="geometry"/>
                </mxCell>
                <mxCell id="mWjWmFwrWSOs6kgCQoUs-72" value="" style="endArrow=classic;html=1;rounded=0;entryX=0;entryY=0.5;entryDx=0;entryDy=0;" parent="1" target="mWjWmFwrWSOs6kgCQoUs-50" edge="1">
                    <mxGeometry width="50" height="50" relative="1" as="geometry">
                        <mxPoint x="320" y="770" as="sourcePoint"/>
                        <mxPoint x="470" y="770" as="targetPoint"/>
                        <Array as="points">
                            <mxPoint x="400" y="770"/>
                        </Array>
                    </mxGeometry>
                </mxCell>
                <mxCell id="mWjWmFwrWSOs6kgCQoUs-73" value="Activated Account" style="edgeLabel;html=1;align=center;verticalAlign=middle;resizable=0;points=[];" parent="mWjWmFwrWSOs6kgCQoUs-72" vertex="1" connectable="0">
                    <mxGeometry x="-0.0418" y="-1" relative="1" as="geometry">
                        <mxPoint as="offset"/>
                    </mxGeometry>
                </mxCell>
                <mxCell id="mWjWmFwrWSOs6kgCQoUs-74" value="" style="endArrow=classic;html=1;rounded=0;entryX=0.543;entryY=0;entryDx=0;entryDy=0;entryPerimeter=0;exitX=1;exitY=0.5;exitDx=0;exitDy=0;" parent="1" source="mWjWmFwrWSOs6kgCQoUs-67" target="mWjWmFwrWSOs6kgCQoUs-48" edge="1">
                    <mxGeometry width="50" height="50" relative="1" as="geometry">
                        <mxPoint x="380" y="790" as="sourcePoint"/>
                        <mxPoint x="430" y="740" as="targetPoint"/>
                    </mxGeometry>
                </mxCell>
                <mxCell id="mWjWmFwrWSOs6kgCQoUs-75" value="New account" style="edgeLabel;html=1;align=center;verticalAlign=middle;resizable=0;points=[];" parent="mWjWmFwrWSOs6kgCQoUs-74" vertex="1" connectable="0">
                    <mxGeometry x="0.5525" y="1" relative="1" as="geometry">
                        <mxPoint x="-20" y="-14" as="offset"/>
                    </mxGeometry>
                </mxCell>
                <mxCell id="mWjWmFwrWSOs6kgCQoUs-76" value="" style="endArrow=classic;html=1;rounded=0;exitX=0.614;exitY=0;exitDx=0;exitDy=0;exitPerimeter=0;entryX=0;entryY=0.5;entryDx=0;entryDy=0;" parent="1" source="mWjWmFwrWSOs6kgCQoUs-48" target="mWjWmFwrWSOs6kgCQoUs-50" edge="1">
                    <mxGeometry width="50" height="50" relative="1" as="geometry">
                        <mxPoint x="424" y="840" as="sourcePoint"/>
                        <mxPoint x="500" y="780" as="targetPoint"/>
                    </mxGeometry>
                </mxCell>
                <mxCell id="mWjWmFwrWSOs6kgCQoUs-77" value="Set refund status to the given&lt;br&gt;status&amp;nbsp;" style="shape=step;perimeter=stepPerimeter;whiteSpace=wrap;html=1;fixedSize=1;" parent="1" vertex="1">
                    <mxGeometry x="950" y="730" width="190" height="80" as="geometry"/>
                </mxCell>
            </root>
        </mxGraphModel>
    </diagram>
</mxfile>